<svg xmlns="http://www.w3.org/2000/svg" viewBox="0 0 900 620" role="img" aria-labelledby="t d"><title id="t">BlueVPN global protection</title><desc id="d">Network globe protected by a shield.</desc><defs><linearGradient id="g" x1="0" y1="0" x2="1" y2="1"><stop stop-color="#1150e5"/><stop offset="1" stop-color="#20d7de"/></linearGradient><filter id="s" x="-30%" y="-30%" width="160%" height="160%"><feDropShadow dx="0" dy="18" stdDeviation="20" flood-color="#051942" flood-opacity=".25"/></filter></defs><g opacity=".25" stroke="#4eddf3" fill="none"><ellipse cx="450" cy="310" rx="360" ry="175" stroke-width="3"/><ellipse cx="450" cy="310" rx="260" ry="260" stroke-width="2"/></g><circle cx="450" cy="310" r="222" fill="#0b2f78" opacity=".08"/><g fill="none" stroke="#2b7cff" stroke-width="3" opacity=".5"><path d="M245 310h410M450 91c-87 77-130 150-130 219s43 143 130 219M450 91c87 77 130 150 130 219s-43 143-130 219"/><ellipse cx="450" cy="310" rx="220" ry="90"/></g><g fill="#22cfe6"><circle cx="252" cy="252" r="9"/><circle cx="625" cy="213" r="9"/><circle cx="640" cy="390" r="9"/><circle cx="332" cy="451" r="9"/></g><g filter="url(#s)"><path d="M450 142c65 50 124 62 169 70v109c0 123-75 194-169 242-94-48-169-119-169-242V212c45-8 104-20 169-70Z" fill="url(#g)"/><path d="M450 222a58 58 0 0 0-58 58v31h-20v97h156v-97h-20v-31a58 58 0 0 0-58-58Zm0 31a27 27 0 0 1 27 27v31h-54v-31a27 27 0 0 1 27-27Z" fill="#fff"/></g><g fill="#fff" stroke="#2c7cf0" stroke-width="4"><circle cx="151" cy="192" r="26"/><circle cx="747" cy="149" r="26"/><circle cx="745" cy="462" r="26"/></g></svg>
