<svg xmlns="http://www.w3.org/2000/svg" viewBox="0 0 900 620" role="img" aria-labelledby="t d"><title id="t">BlueVPN speed and stability</title><desc id="d">Fast secure tunnel with performance dashboard.</desc><defs><linearGradient id="g" x1="0" y1="0" x2="1" y2="1"><stop stop-color="#1455ed"/><stop offset="1" stop-color="#39e0d0"/></linearGradient><filter id="s" x="-30%" y="-30%" width="160%" height="160%"><feDropShadow dx="0" dy="18" stdDeviation="22" flood-color="#05183b" flood-opacity=".2"/></filter></defs><g filter="url(#s)"><rect x="71" y="294" width="310" height="190" rx="28" fill="#f8fbff" stroke="#dbe9fb" stroke-width="4"/><rect x="95" y="323" width="262" height="130" rx="18" fill="#0d347d"/><path d="M154 407l44-41 42 27 50-50" stroke="#58e8e1" stroke-width="12" fill="none" stroke-linecap="round" stroke-linejoin="round"/><circle cx="154" cy="407" r="8" fill="#fff"/><circle cx="290" cy="343" r="8" fill="#fff"/></g><g transform="translate(359 165)"><ellipse cx="112" cy="145" rx="112" ry="145" fill="#092968"/><ellipse cx="112" cy="145" rx="78" ry="106" fill="#0e4ee5"/><ellipse cx="112" cy="145" rx="49" ry="72" fill="#a7f7ff"/><path d="M93 109c130-62 221-77 347-50M93 145c145-14 241 8 360 77M93 182c130 43 218 93 318 183" stroke="url(#g)" stroke-width="18" fill="none" stroke-linecap="round" opacity=".8"/></g><g transform="translate(654 62) rotate(14 70 100)" filter="url(#s)"><path d="M68 0c43 28 70 70 70 117l-27 42-43-18-43 18-27-42C-2 70 25 28 68 0Z" fill="#fff" stroke="#1d68e9" stroke-width="6"/><circle cx="68" cy="73" r="26" fill="url(#g)"/><path d="M46 143l-18 60 40-26 40 26-18-60" fill="#27d8dd"/></g><g transform="translate(650 315)" filter="url(#s)"><rect width="190" height="158" rx="25" fill="#0a2a68"/><path d="M31 104h20V73H31zm36 0h20V52H67zm36 0h20V38h-20zm36 0h20V22h-20" fill="#42e4d1"/><path d="M31 122h128" stroke="#6b91c8" stroke-width="5" stroke-linecap="round"/></g><g fill="#1a72ef"><circle cx="551" cy="487" r="11"/><circle cx="619" cy="415" r="9"/><circle cx="729" cy="279" r="9"/></g></svg>
